<svg width="16" height="16" viewBox="0 0 16 16" fill="none" xmlns="http://www.w3.org/2000/svg">
<path d="M16 8C16 6.41775 15.5308 4.87103 14.6518 3.55544C13.7727 2.23985 12.5233 1.21447 11.0615 0.608967C9.59966 0.00346585 7.99113 -0.154961 6.43928 0.153721C4.88743 0.462403 3.46197 1.22433 2.34315 2.34315C1.22433 3.46197 0.462404 4.88743 0.153722 6.43928C-0.15496 7.99113 0.00346589 9.59966 0.608967 11.0615C1.21447 12.5233 2.23985 13.7727 3.55544 14.6518C4.87103 15.5308 6.41775 16 8 16C10.121 15.9975 12.1544 15.1539 13.6541 13.6541C15.1539 12.1544 15.9975 10.121 16 8ZM0.94118 8C0.94118 6.6039 1.35517 5.23915 2.13081 4.07833C2.90644 2.91751 4.00888 2.01277 5.29871 1.4785C6.58854 0.944235 8.00783 0.804447 9.37711 1.07681C10.7464 1.34918 12.0041 2.02147 12.9913 3.00866C13.9785 3.99585 14.6508 5.25362 14.9232 6.62289C15.1956 7.99217 15.0558 9.41146 14.5215 10.7013C13.9872 11.9911 13.0825 13.0936 11.9217 13.8692C10.7609 14.6448 9.3961 15.0588 8 15.0588C6.12852 15.0567 4.33429 14.3124 3.01095 12.989C1.68762 11.6657 0.943256 9.87148 0.94118 8ZM8.33255 11.4698C8.24432 11.5579 8.12471 11.6074 8 11.6074C7.8753 11.6074 7.75569 11.5579 7.66745 11.4698L5.15765 8.96C5.07452 8.87079 5.02927 8.7528 5.03142 8.63089C5.03357 8.50898 5.08296 8.39265 5.16918 8.30643C5.2554 8.22021 5.37172 8.17083 5.49364 8.16868C5.61555 8.16652 5.73354 8.21178 5.82275 8.2949L7.52941 10.0008V4.86275C7.52941 4.73794 7.57899 4.61824 7.66725 4.52999C7.7555 4.44174 7.87519 4.39216 8 4.39216C8.12481 4.39216 8.24451 4.44174 8.33276 4.52999C8.42101 4.61824 8.47059 4.73794 8.47059 4.86275V10.0008L10.1773 8.2949C10.2665 8.21178 10.3845 8.16653 10.5064 8.16868C10.6283 8.17083 10.7446 8.22021 10.8308 8.30643C10.917 8.39265 10.9664 8.50898 10.9686 8.63089C10.9707 8.7528 10.9255 8.87079 10.8424 8.96L8.33255 11.4698Z" fill="white"/>
</svg>
